<mxfile host="65bd71144e">
    <diagram id="yzIbM_FiSoW3WSIiw5HU" name="Client">
        <mxGraphModel dx="739" dy="582" grid="1" gridSize="10" guides="1" tooltips="1" connect="1" arrows="1" fold="1" page="1" pageScale="1" pageWidth="827" pageHeight="1169" math="0" shadow="0">
            <root>
                <mxCell id="0"/>
                <mxCell id="1" parent="0"/>
                <mxCell id="2" value="" style="shape=ext;double=1;rounded=0;whiteSpace=wrap;html=1;fillColor=#2A2839;fontColor=#FFFFFF;labelBackgroundColor=#FFFFFF;" parent="1" vertex="1">
                    <mxGeometry x="40" y="40" width="360" height="480" as="geometry"/>
                </mxCell>
                <mxCell id="4" value="" style="shape=ext;double=1;rounded=0;whiteSpace=wrap;html=1;fillColor=#411C1F;fontColor=#FFFFFF;labelBackgroundColor=#FFFFFF;" parent="1" vertex="1">
                    <mxGeometry x="50" y="50" width="40" height="40" as="geometry"/>
                </mxCell>
                <mxCell id="5" value="" style="endArrow=none;html=1;jumpSize=12;fontColor=#FFFFFF;labelBackgroundColor=#FFFFFF;" parent="1" edge="1">
                    <mxGeometry width="50" height="50" relative="1" as="geometry">
                        <mxPoint x="60" y="60" as="sourcePoint"/>
                        <mxPoint x="80" y="60" as="targetPoint"/>
                    </mxGeometry>
                </mxCell>
                <mxCell id="6" value="" style="endArrow=none;html=1;jumpSize=12;fontColor=#FFFFFF;labelBackgroundColor=#FFFFFF;" parent="1" edge="1">
                    <mxGeometry width="50" height="50" relative="1" as="geometry">
                        <mxPoint x="60" y="69.94" as="sourcePoint"/>
                        <mxPoint x="80" y="69.94" as="targetPoint"/>
                    </mxGeometry>
                </mxCell>
                <mxCell id="7" value="" style="endArrow=none;html=1;jumpSize=12;fontColor=#FFFFFF;labelBackgroundColor=#FFFFFF;" parent="1" edge="1">
                    <mxGeometry width="50" height="50" relative="1" as="geometry">
                        <mxPoint x="60" y="79.94" as="sourcePoint"/>
                        <mxPoint x="80" y="79.94" as="targetPoint"/>
                    </mxGeometry>
                </mxCell>
                <mxCell id="8" value="" style="shape=ext;double=1;rounded=0;whiteSpace=wrap;html=1;fillColor=#411C1F;fontColor=#FFFFFF;" parent="1" vertex="1">
                    <mxGeometry x="50" y="470" width="340" height="40" as="geometry"/>
                </mxCell>
                <mxCell id="15" value="" style="verticalLabelPosition=bottom;html=1;verticalAlign=top;strokeWidth=2;shape=mxgraph.lean_mapping.sequenced_pull_ball;fillColor=#411C1F;fontColor=#FFFFFF;labelBackgroundColor=#FFFFFF;" parent="1" vertex="1">
                    <mxGeometry x="310" y="350" width="60" height="60" as="geometry"/>
                </mxCell>
                <mxCell id="16" value="" style="verticalLabelPosition=bottom;html=1;verticalAlign=top;strokeWidth=2;shape=mxgraph.lean_mapping.sequenced_pull_ball;fillColor=#411C1F;fontColor=#FFFFFF;labelBackgroundColor=#FFFFFF;" parent="1" vertex="1">
                    <mxGeometry x="230" y="350" width="60" height="60" as="geometry"/>
                </mxCell>
                <mxCell id="17" value="" style="verticalLabelPosition=bottom;html=1;verticalAlign=top;strokeWidth=2;shape=mxgraph.lean_mapping.sequenced_pull_ball;fillColor=#411C1F;fontColor=#FFFFFF;labelBackgroundColor=#FFFFFF;" parent="1" vertex="1">
                    <mxGeometry x="150" y="350" width="60" height="60" as="geometry"/>
                </mxCell>
                <mxCell id="18" value="" style="verticalLabelPosition=bottom;html=1;verticalAlign=top;strokeWidth=2;shape=mxgraph.lean_mapping.sequenced_pull_ball;fillColor=#411C1F;fontColor=#FFFFFF;labelBackgroundColor=#FFFFFF;shadow=0;" parent="1" vertex="1">
                    <mxGeometry x="70" y="350" width="60" height="60" as="geometry"/>
                </mxCell>
                <mxCell id="21" value="" style="ellipse;shape=doubleEllipse;whiteSpace=wrap;html=1;aspect=fixed;fillColor=#411C1F;fontColor=#FFFFFF;" parent="1" vertex="1">
                    <mxGeometry x="145" y="100" width="150" height="150" as="geometry"/>
                </mxCell>
                <mxCell id="23" value="&lt;font&gt;RAM&lt;/font&gt;" style="text;html=1;strokeColor=none;fillColor=none;align=center;verticalAlign=middle;whiteSpace=wrap;rounded=0;fontFamily=Helvetica;fontSize=12;fontColor=#2A2839;labelBackgroundColor=none;" parent="1" vertex="1">
                    <mxGeometry x="70" y="365" width="60" height="30" as="geometry"/>
                </mxCell>
                <mxCell id="24" value="&lt;font&gt;CPU&lt;/font&gt;" style="text;html=1;strokeColor=none;fillColor=none;align=center;verticalAlign=middle;whiteSpace=wrap;rounded=0;fontFamily=Helvetica;fontSize=12;fontColor=#2A2839;labelBackgroundColor=none;" parent="1" vertex="1">
                    <mxGeometry x="150" y="365" width="60" height="30" as="geometry"/>
                </mxCell>
                <mxCell id="25" value="&lt;font&gt;PKG&lt;/font&gt;" style="text;html=1;strokeColor=none;fillColor=none;align=center;verticalAlign=middle;whiteSpace=wrap;rounded=0;fontFamily=Helvetica;fontSize=12;fontColor=#2A2839;labelBackgroundColor=none;" parent="1" vertex="1">
                    <mxGeometry x="310" y="365" width="60" height="30" as="geometry"/>
                </mxCell>
                <mxCell id="26" value="&lt;font&gt;DISK&lt;/font&gt;" style="text;html=1;strokeColor=none;fillColor=none;align=center;verticalAlign=middle;whiteSpace=wrap;rounded=0;fontFamily=Helvetica;fontSize=12;fontColor=#2A2839;labelBackgroundColor=none;" parent="1" vertex="1">
                    <mxGeometry x="230" y="365" width="60" height="30" as="geometry"/>
                </mxCell>
                <mxCell id="27" value="&lt;font&gt;93%&lt;/font&gt;" style="text;html=1;strokeColor=none;fillColor=none;align=center;verticalAlign=middle;whiteSpace=wrap;rounded=0;fontFamily=Helvetica;fontSize=12;fontColor=#FFFFFF;" parent="1" vertex="1">
                    <mxGeometry x="70" y="410" width="60" height="30" as="geometry"/>
                </mxCell>
                <mxCell id="28" value="&lt;font&gt;14%&lt;/font&gt;" style="text;html=1;strokeColor=none;fillColor=none;align=center;verticalAlign=middle;whiteSpace=wrap;rounded=0;fontFamily=Helvetica;fontSize=12;fontColor=#FFFFFF;" parent="1" vertex="1">
                    <mxGeometry x="150" y="410" width="60" height="30" as="geometry"/>
                </mxCell>
                <mxCell id="29" value="&lt;font&gt;93%&lt;/font&gt;" style="text;html=1;strokeColor=none;fillColor=none;align=center;verticalAlign=middle;whiteSpace=wrap;rounded=0;fontFamily=Helvetica;fontSize=12;fontColor=#FFFFFF;" parent="1" vertex="1">
                    <mxGeometry x="230" y="410" width="60" height="30" as="geometry"/>
                </mxCell>
                <mxCell id="30" value="&lt;font&gt;1250&lt;/font&gt;" style="text;html=1;strokeColor=none;fillColor=none;align=center;verticalAlign=middle;whiteSpace=wrap;rounded=0;fontFamily=Helvetica;fontSize=12;fontColor=#FFFFFF;" parent="1" vertex="1">
                    <mxGeometry x="310" y="410" width="60" height="30" as="geometry"/>
                </mxCell>
                <mxCell id="32" value="" style="shape=ext;double=1;rounded=0;whiteSpace=wrap;html=1;fillColor=#2A2839;labelBackgroundColor=none;" parent="1" vertex="1">
                    <mxGeometry x="440" y="40" width="340" height="240" as="geometry"/>
                </mxCell>
                <mxCell id="35" value="Repository" style="text;html=1;strokeColor=none;fillColor=none;align=center;verticalAlign=middle;whiteSpace=wrap;rounded=0;fontFamily=Helvetica;fontSize=12;fontColor=#FFFFFF;labelBackgroundColor=none;" parent="1" vertex="1">
                    <mxGeometry x="510" y="60" width="70" height="30" as="geometry"/>
                </mxCell>
                <mxCell id="40" value="" style="rounded=1;whiteSpace=wrap;html=1;strokeColor=default;fontFamily=Helvetica;fontSize=12;fontColor=#FFFFFF;fillColor=#FFFFFF;arcSize=50;labelBackgroundColor=none;" parent="1" vertex="1">
                    <mxGeometry x="500" y="115" width="70" height="20" as="geometry"/>
                </mxCell>
                <mxCell id="37" value="" style="ellipse;shape=doubleEllipse;whiteSpace=wrap;html=1;aspect=fixed;fillColor=#411C1F;labelBackgroundColor=none;" parent="1" vertex="1">
                    <mxGeometry x="500" y="115" width="20" height="20" as="geometry"/>
                </mxCell>
                <mxCell id="41" value="" style="rounded=1;whiteSpace=wrap;html=1;strokeColor=default;fontFamily=Helvetica;fontSize=12;fontColor=#FFFFFF;fillColor=#FFFFFF;arcSize=50;labelBackgroundColor=none;" parent="1" vertex="1">
                    <mxGeometry x="500" y="150" width="70" height="20" as="geometry"/>
                </mxCell>
                <mxCell id="42" value="" style="ellipse;shape=doubleEllipse;whiteSpace=wrap;html=1;aspect=fixed;fillColor=#411C1F;labelBackgroundColor=none;" parent="1" vertex="1">
                    <mxGeometry x="500" y="150" width="20" height="20" as="geometry"/>
                </mxCell>
                <mxCell id="43" value="Developer mode" style="text;html=1;strokeColor=none;fillColor=none;align=left;verticalAlign=middle;whiteSpace=wrap;rounded=0;fontFamily=Helvetica;fontSize=12;fontColor=#FFFFFF;labelBackgroundColor=none;" parent="1" vertex="1">
                    <mxGeometry x="605" y="117.5" width="130" height="15" as="geometry"/>
                </mxCell>
                <mxCell id="44" value="Debug mode" style="text;html=1;strokeColor=none;fillColor=none;align=left;verticalAlign=middle;whiteSpace=wrap;rounded=0;fontFamily=Helvetica;fontSize=12;fontColor=#FFFFFF;labelBackgroundColor=none;" parent="1" vertex="1">
                    <mxGeometry x="602.5" y="153.75" width="130" height="12.5" as="geometry"/>
                </mxCell>
                <mxCell id="45" value="" style="shape=ext;double=1;rounded=0;whiteSpace=wrap;html=1;fillColor=#2A2839;" parent="1" vertex="1">
                    <mxGeometry x="40" y="600" width="360" height="480" as="geometry"/>
                </mxCell>
                <mxCell id="50" value="" style="shape=ext;double=1;rounded=0;whiteSpace=wrap;html=1;fillColor=#411C1F;labelBackgroundColor=#FFFFFF;" parent="1" vertex="1">
                    <mxGeometry x="50" y="1030" width="340" height="40" as="geometry"/>
                </mxCell>
                <mxCell id="65" value="" style="shape=ext;double=1;rounded=0;whiteSpace=wrap;html=1;fillColor=#411C1F;labelBackgroundColor=#FFFFFF;" parent="1" vertex="1">
                    <mxGeometry x="100" y="600" width="300" height="60" as="geometry"/>
                </mxCell>
                <mxCell id="54" value="" style="verticalLabelPosition=bottom;html=1;verticalAlign=top;strokeWidth=2;shape=mxgraph.lean_mapping.sequenced_pull_ball;fillColor=#411C1F;labelBackgroundColor=#FFFFFF;" parent="1" vertex="1">
                    <mxGeometry x="137.5" y="610" width="30" height="30" as="geometry"/>
                </mxCell>
                <mxCell id="57" value="&lt;p style=&quot;line-height: 100%;&quot;&gt;&lt;font style=&quot;font-size: 6px;&quot; color=&quot;#2a2839&quot;&gt;RAM&lt;/font&gt;&lt;/p&gt;" style="text;html=1;strokeColor=none;fillColor=none;align=center;verticalAlign=middle;whiteSpace=wrap;rounded=0;fontFamily=Helvetica;fontSize=12;fontColor=default;" parent="1" vertex="1">
                    <mxGeometry x="140" y="610" width="25" height="30" as="geometry"/>
                </mxCell>
                <mxCell id="61" value="&lt;font style=&quot;font-size: 8px;&quot; color=&quot;#ffffff&quot;&gt;93%&lt;/font&gt;" style="text;html=1;strokeColor=none;fillColor=none;align=center;verticalAlign=middle;whiteSpace=wrap;rounded=0;fontFamily=Helvetica;fontSize=12;fontColor=default;" parent="1" vertex="1">
                    <mxGeometry x="137.5" y="640" width="30" height="10" as="geometry"/>
                </mxCell>
                <mxCell id="66" value="" style="verticalLabelPosition=bottom;html=1;verticalAlign=top;strokeWidth=2;shape=mxgraph.lean_mapping.sequenced_pull_ball;fillColor=#411C1F;labelBackgroundColor=#FFFFFF;" parent="1" vertex="1">
                    <mxGeometry x="202.5" y="610" width="30" height="30" as="geometry"/>
                </mxCell>
                <mxCell id="67" value="&lt;p style=&quot;line-height: 100%;&quot;&gt;&lt;font style=&quot;font-size: 6px;&quot; color=&quot;#2a2839&quot;&gt;CPU&lt;/font&gt;&lt;/p&gt;" style="text;html=1;strokeColor=none;fillColor=none;align=center;verticalAlign=middle;whiteSpace=wrap;rounded=0;fontFamily=Helvetica;fontSize=12;fontColor=default;" parent="1" vertex="1">
                    <mxGeometry x="205" y="610" width="25" height="30" as="geometry"/>
                </mxCell>
                <mxCell id="68" value="&lt;font style=&quot;font-size: 8px;&quot; color=&quot;#ffffff&quot;&gt;14%&lt;/font&gt;" style="text;html=1;strokeColor=none;fillColor=none;align=center;verticalAlign=middle;whiteSpace=wrap;rounded=0;fontFamily=Helvetica;fontSize=12;fontColor=default;" parent="1" vertex="1">
                    <mxGeometry x="202.5" y="640" width="30" height="10" as="geometry"/>
                </mxCell>
                <mxCell id="69" value="" style="verticalLabelPosition=bottom;html=1;verticalAlign=top;strokeWidth=2;shape=mxgraph.lean_mapping.sequenced_pull_ball;fillColor=#411C1F;labelBackgroundColor=#FFFFFF;" parent="1" vertex="1">
                    <mxGeometry x="267.5" y="610" width="30" height="30" as="geometry"/>
                </mxCell>
                <mxCell id="70" value="&lt;p style=&quot;line-height: 100%;&quot;&gt;&lt;font style=&quot;font-size: 6px;&quot; color=&quot;#2a2839&quot;&gt;DISK&lt;/font&gt;&lt;/p&gt;" style="text;html=1;strokeColor=none;fillColor=none;align=center;verticalAlign=middle;whiteSpace=wrap;rounded=0;fontFamily=Helvetica;fontSize=12;fontColor=default;" parent="1" vertex="1">
                    <mxGeometry x="270" y="610" width="25" height="30" as="geometry"/>
                </mxCell>
                <mxCell id="71" value="&lt;font style=&quot;font-size: 8px;&quot; color=&quot;#ffffff&quot;&gt;93%&lt;/font&gt;" style="text;html=1;strokeColor=none;fillColor=none;align=center;verticalAlign=middle;whiteSpace=wrap;rounded=0;fontFamily=Helvetica;fontSize=12;fontColor=default;" parent="1" vertex="1">
                    <mxGeometry x="267.5" y="640" width="30" height="10" as="geometry"/>
                </mxCell>
                <mxCell id="72" value="" style="verticalLabelPosition=bottom;html=1;verticalAlign=top;strokeWidth=2;shape=mxgraph.lean_mapping.sequenced_pull_ball;fillColor=#411C1F;labelBackgroundColor=#FFFFFF;" parent="1" vertex="1">
                    <mxGeometry x="332.5" y="610" width="30" height="30" as="geometry"/>
                </mxCell>
                <mxCell id="73" value="&lt;p style=&quot;line-height: 100%;&quot;&gt;&lt;font style=&quot;font-size: 6px;&quot; color=&quot;#2a2839&quot;&gt;PKG&lt;/font&gt;&lt;/p&gt;" style="text;html=1;strokeColor=none;fillColor=none;align=center;verticalAlign=middle;whiteSpace=wrap;rounded=0;fontFamily=Helvetica;fontSize=12;fontColor=default;" parent="1" vertex="1">
                    <mxGeometry x="335" y="610" width="25" height="30" as="geometry"/>
                </mxCell>
                <mxCell id="74" value="&lt;font style=&quot;font-size: 8px;&quot; color=&quot;#ffffff&quot;&gt;1250&lt;/font&gt;" style="text;html=1;strokeColor=none;fillColor=none;align=center;verticalAlign=middle;whiteSpace=wrap;rounded=0;fontFamily=Helvetica;fontSize=12;fontColor=default;" parent="1" vertex="1">
                    <mxGeometry x="332.5" y="640" width="30" height="10" as="geometry"/>
                </mxCell>
                <mxCell id="82" value="" style="shape=ext;double=1;rounded=0;whiteSpace=wrap;html=1;fillColor=#411C1F;labelBackgroundColor=#FFFFFF;" parent="1" vertex="1">
                    <mxGeometry x="50" y="610" width="40" height="40" as="geometry"/>
                </mxCell>
                <mxCell id="83" value="" style="endArrow=none;html=1;jumpSize=12;labelBackgroundColor=#FFFFFF;" parent="1" edge="1">
                    <mxGeometry width="50" height="50" relative="1" as="geometry">
                        <mxPoint x="60" y="620" as="sourcePoint"/>
                        <mxPoint x="80" y="620" as="targetPoint"/>
                    </mxGeometry>
                </mxCell>
                <mxCell id="84" value="" style="endArrow=none;html=1;jumpSize=12;labelBackgroundColor=#FFFFFF;" parent="1" edge="1">
                    <mxGeometry width="50" height="50" relative="1" as="geometry">
                        <mxPoint x="60" y="629.94" as="sourcePoint"/>
                        <mxPoint x="80" y="629.94" as="targetPoint"/>
                    </mxGeometry>
                </mxCell>
                <mxCell id="85" value="" style="endArrow=none;html=1;jumpSize=12;labelBackgroundColor=#FFFFFF;" parent="1" edge="1">
                    <mxGeometry width="50" height="50" relative="1" as="geometry">
                        <mxPoint x="60" y="639.94" as="sourcePoint"/>
                        <mxPoint x="80" y="639.94" as="targetPoint"/>
                    </mxGeometry>
                </mxCell>
                <mxCell id="87" value="" style="ellipse;shape=doubleEllipse;whiteSpace=wrap;html=1;aspect=fixed;labelBackgroundColor=#FFFFFF;" parent="1" vertex="1">
                    <mxGeometry x="335" y="970" width="50" height="50" as="geometry"/>
                </mxCell>
                <mxCell id="88" value="" style="ellipse;shape=doubleEllipse;whiteSpace=wrap;html=1;aspect=fixed;fillColor=#B44D4B;labelBackgroundColor=#FFFFFF;" parent="1" vertex="1">
                    <mxGeometry x="50" y="750" width="50" height="50" as="geometry"/>
                </mxCell>
                <mxCell id="89" value="" style="shape=ext;double=1;rounded=0;whiteSpace=wrap;html=1;fillColor=#411C1F;labelBackgroundColor=#FFFFFF;" parent="1" vertex="1">
                    <mxGeometry x="110" y="750" width="270" height="200" as="geometry"/>
                </mxCell>
                <mxCell id="90" value="" style="shape=ext;double=1;rounded=0;whiteSpace=wrap;html=1;fillColor=#411C1F;labelBackgroundColor=#FFFFFF;" parent="1" vertex="1">
                    <mxGeometry x="50" y="970" width="270" height="50" as="geometry"/>
                </mxCell>
                <mxCell id="93" value="" style="ellipse;whiteSpace=wrap;html=1;aspect=fixed;strokeColor=default;fontFamily=Helvetica;fontSize=8;fontColor=#FFFFFF;fillColor=#FFFFFF;labelBackgroundColor=none;" parent="1" vertex="1">
                    <mxGeometry x="640" y="50" width="50" height="50" as="geometry"/>
                </mxCell>
                <mxCell id="94" value="" style="rounded=1;whiteSpace=wrap;html=1;strokeColor=default;fontFamily=Helvetica;fontSize=8;fontColor=#FFFFFF;fillColor=#411C1F;labelBackgroundColor=none;" parent="1" vertex="1">
                    <mxGeometry x="476.25" y="230" width="120" height="30" as="geometry"/>
                </mxCell>
                <mxCell id="95" value="Clear history" style="text;html=1;strokeColor=none;fillColor=none;align=center;verticalAlign=middle;whiteSpace=wrap;rounded=0;fontFamily=Helvetica;fontSize=12;fontColor=#FFFFFF;labelBackgroundColor=none;" parent="1" vertex="1">
                    <mxGeometry x="496.25" y="232.5" width="80" height="25" as="geometry"/>
                </mxCell>
                <mxCell id="96" value="Community" style="text;html=1;strokeColor=none;fillColor=none;align=center;verticalAlign=middle;whiteSpace=wrap;rounded=0;fontFamily=Helvetica;fontSize=12;fontColor=#FFFFFF;labelBackgroundColor=none;" parent="1" vertex="1">
                    <mxGeometry x="700" y="60" width="70" height="30" as="geometry"/>
                </mxCell>
                <mxCell id="97" value="" style="endArrow=none;html=1;fontFamily=Helvetica;fontSize=8;fontColor=#FFFFFF;jumpSize=12;exitX=0;exitY=0.75;exitDx=0;exitDy=0;entryX=1;entryY=0.75;entryDx=0;entryDy=0;labelBackgroundColor=none;" parent="1" source="32" target="32" edge="1">
                    <mxGeometry width="50" height="50" relative="1" as="geometry">
                        <mxPoint x="470" y="250" as="sourcePoint"/>
                        <mxPoint x="520" y="200" as="targetPoint"/>
                    </mxGeometry>
                </mxCell>
                <mxCell id="98" value="" style="shape=ext;double=1;rounded=0;whiteSpace=wrap;html=1;fillColor=#2A2839;" parent="1" vertex="1">
                    <mxGeometry x="440" y="600" width="360" height="480" as="geometry"/>
                </mxCell>
                <mxCell id="99" value="" style="shape=ext;double=1;rounded=0;whiteSpace=wrap;html=1;fillColor=#411C1F;labelBackgroundColor=#FFFFFF;" parent="1" vertex="1">
                    <mxGeometry x="450" y="1030" width="340" height="40" as="geometry"/>
                </mxCell>
                <mxCell id="100" value="" style="shape=ext;double=1;rounded=0;whiteSpace=wrap;html=1;fillColor=#411C1F;fontColor=#FFFFFF;labelBackgroundColor=#FFFFFF;" parent="1" vertex="1">
                    <mxGeometry x="500" y="640" width="300" height="60" as="geometry"/>
                </mxCell>
                <mxCell id="101" value="" style="verticalLabelPosition=bottom;html=1;verticalAlign=top;strokeWidth=2;shape=mxgraph.lean_mapping.sequenced_pull_ball;fillColor=#411C1F;" parent="1" vertex="1">
                    <mxGeometry x="537.5" y="650" width="30" height="30" as="geometry"/>
                </mxCell>
                <mxCell id="102" value="&lt;p style=&quot;line-height: 100%;&quot;&gt;&lt;font style=&quot;font-size: 6px;&quot; color=&quot;#2a2839&quot;&gt;RAM&lt;/font&gt;&lt;/p&gt;" style="text;html=1;strokeColor=none;fillColor=none;align=center;verticalAlign=middle;whiteSpace=wrap;rounded=0;fontFamily=Helvetica;fontSize=12;fontColor=default;" parent="1" vertex="1">
                    <mxGeometry x="540" y="650" width="25" height="30" as="geometry"/>
                </mxCell>
                <mxCell id="103" value="&lt;font style=&quot;font-size: 8px;&quot; color=&quot;#ffffff&quot;&gt;93%&lt;/font&gt;" style="text;html=1;strokeColor=none;fillColor=none;align=center;verticalAlign=middle;whiteSpace=wrap;rounded=0;fontFamily=Helvetica;fontSize=12;fontColor=default;" parent="1" vertex="1">
                    <mxGeometry x="537.5" y="680" width="30" height="10" as="geometry"/>
                </mxCell>
                <mxCell id="104" value="" style="verticalLabelPosition=bottom;html=1;verticalAlign=top;strokeWidth=2;shape=mxgraph.lean_mapping.sequenced_pull_ball;fillColor=#411C1F;" parent="1" vertex="1">
                    <mxGeometry x="602.5" y="650" width="30" height="30" as="geometry"/>
                </mxCell>
                <mxCell id="105" value="&lt;p style=&quot;line-height: 100%;&quot;&gt;&lt;font style=&quot;font-size: 6px;&quot; color=&quot;#2a2839&quot;&gt;CPU&lt;/font&gt;&lt;/p&gt;" style="text;html=1;strokeColor=none;fillColor=none;align=center;verticalAlign=middle;whiteSpace=wrap;rounded=0;fontFamily=Helvetica;fontSize=12;fontColor=default;" parent="1" vertex="1">
                    <mxGeometry x="605" y="650" width="25" height="30" as="geometry"/>
                </mxCell>
                <mxCell id="106" value="&lt;font style=&quot;font-size: 8px;&quot; color=&quot;#ffffff&quot;&gt;14%&lt;/font&gt;" style="text;html=1;strokeColor=none;fillColor=none;align=center;verticalAlign=middle;whiteSpace=wrap;rounded=0;fontFamily=Helvetica;fontSize=12;fontColor=default;" parent="1" vertex="1">
                    <mxGeometry x="602.5" y="680" width="30" height="10" as="geometry"/>
                </mxCell>
                <mxCell id="107" value="" style="verticalLabelPosition=bottom;html=1;verticalAlign=top;strokeWidth=2;shape=mxgraph.lean_mapping.sequenced_pull_ball;fillColor=#411C1F;" parent="1" vertex="1">
                    <mxGeometry x="667.5" y="650" width="30" height="30" as="geometry"/>
                </mxCell>
                <mxCell id="108" value="&lt;p style=&quot;line-height: 100%;&quot;&gt;&lt;font style=&quot;font-size: 6px;&quot; color=&quot;#2a2839&quot;&gt;DISK&lt;/font&gt;&lt;/p&gt;" style="text;html=1;strokeColor=none;fillColor=none;align=center;verticalAlign=middle;whiteSpace=wrap;rounded=0;fontFamily=Helvetica;fontSize=12;fontColor=default;" parent="1" vertex="1">
                    <mxGeometry x="670" y="650" width="25" height="30" as="geometry"/>
                </mxCell>
                <mxCell id="109" value="&lt;font style=&quot;font-size: 8px;&quot; color=&quot;#ffffff&quot;&gt;93%&lt;/font&gt;" style="text;html=1;strokeColor=none;fillColor=none;align=center;verticalAlign=middle;whiteSpace=wrap;rounded=0;fontFamily=Helvetica;fontSize=12;fontColor=default;" parent="1" vertex="1">
                    <mxGeometry x="667.5" y="680" width="30" height="10" as="geometry"/>
                </mxCell>
                <mxCell id="110" value="" style="verticalLabelPosition=bottom;html=1;verticalAlign=top;strokeWidth=2;shape=mxgraph.lean_mapping.sequenced_pull_ball;fillColor=#411C1F;" parent="1" vertex="1">
                    <mxGeometry x="732.5" y="650" width="30" height="30" as="geometry"/>
                </mxCell>
                <mxCell id="111" value="&lt;p style=&quot;line-height: 100%;&quot;&gt;&lt;font style=&quot;font-size: 6px;&quot; color=&quot;#2a2839&quot;&gt;PKG&lt;/font&gt;&lt;/p&gt;" style="text;html=1;strokeColor=none;fillColor=none;align=center;verticalAlign=middle;whiteSpace=wrap;rounded=0;fontFamily=Helvetica;fontSize=12;fontColor=default;" parent="1" vertex="1">
                    <mxGeometry x="735" y="650" width="25" height="30" as="geometry"/>
                </mxCell>
                <mxCell id="112" value="&lt;font style=&quot;font-size: 8px;&quot; color=&quot;#ffffff&quot;&gt;1250&lt;/font&gt;" style="text;html=1;strokeColor=none;fillColor=none;align=center;verticalAlign=middle;whiteSpace=wrap;rounded=0;fontFamily=Helvetica;fontSize=12;fontColor=default;" parent="1" vertex="1">
                    <mxGeometry x="732.5" y="680" width="30" height="10" as="geometry"/>
                </mxCell>
                <mxCell id="113" value="" style="shape=ext;double=1;rounded=0;whiteSpace=wrap;html=1;fillColor=#411C1F;labelBackgroundColor=#FFFFFF;" parent="1" vertex="1">
                    <mxGeometry x="450" y="650" width="40" height="40" as="geometry"/>
                </mxCell>
                <mxCell id="114" value="" style="endArrow=none;html=1;jumpSize=12;labelBackgroundColor=#FFFFFF;" parent="1" edge="1">
                    <mxGeometry width="50" height="50" relative="1" as="geometry">
                        <mxPoint x="460" y="660" as="sourcePoint"/>
                        <mxPoint x="480" y="660" as="targetPoint"/>
                    </mxGeometry>
                </mxCell>
                <mxCell id="115" value="" style="endArrow=none;html=1;jumpSize=12;labelBackgroundColor=#FFFFFF;" parent="1" edge="1">
                    <mxGeometry width="50" height="50" relative="1" as="geometry">
                        <mxPoint x="460" y="669.94" as="sourcePoint"/>
                        <mxPoint x="480" y="669.94" as="targetPoint"/>
                    </mxGeometry>
                </mxCell>
                <mxCell id="116" value="" style="endArrow=none;html=1;jumpSize=12;labelBackgroundColor=#FFFFFF;" parent="1" edge="1">
                    <mxGeometry width="50" height="50" relative="1" as="geometry">
                        <mxPoint x="460" y="679.94" as="sourcePoint"/>
                        <mxPoint x="480" y="679.94" as="targetPoint"/>
                    </mxGeometry>
                </mxCell>
                <mxCell id="117" value="" style="ellipse;shape=doubleEllipse;whiteSpace=wrap;html=1;aspect=fixed;labelBackgroundColor=#FFFFFF;" parent="1" vertex="1">
                    <mxGeometry x="735" y="970" width="50" height="50" as="geometry"/>
                </mxCell>
                <mxCell id="118" value="" style="ellipse;shape=doubleEllipse;whiteSpace=wrap;html=1;aspect=fixed;fillColor=#B44D4B;labelBackgroundColor=#FFFFFF;" parent="1" vertex="1">
                    <mxGeometry x="450" y="750" width="50" height="50" as="geometry"/>
                </mxCell>
                <mxCell id="119" value="" style="shape=ext;double=1;rounded=0;whiteSpace=wrap;html=1;fillColor=#411C1F;labelBackgroundColor=#FFFFFF;" parent="1" vertex="1">
                    <mxGeometry x="510" y="750" width="270" height="200" as="geometry"/>
                </mxCell>
                <mxCell id="120" value="" style="shape=ext;double=1;rounded=0;whiteSpace=wrap;html=1;fillColor=#411C1F;labelBackgroundColor=#FFFFFF;" parent="1" vertex="1">
                    <mxGeometry x="450" y="970" width="270" height="50" as="geometry"/>
                </mxCell>
                <mxCell id="121" value="" style="rounded=1;whiteSpace=wrap;html=1;strokeColor=default;fontFamily=Helvetica;fontSize=8;fontColor=#FFFFFF;fillColor=#411C1F;labelBackgroundColor=none;" parent="1" vertex="1">
                    <mxGeometry x="623.75" y="230" width="120" height="30" as="geometry"/>
                </mxCell>
                <mxCell id="122" value="New cosmos" style="text;html=1;strokeColor=none;fillColor=none;align=center;verticalAlign=middle;whiteSpace=wrap;rounded=0;fontFamily=Helvetica;fontSize=12;fontColor=#FFFFFF;labelBackgroundColor=none;" parent="1" vertex="1">
                    <mxGeometry x="643.75" y="232.5" width="80" height="25" as="geometry"/>
                </mxCell>
                <mxCell id="123" value="" style="shape=ext;double=1;rounded=0;whiteSpace=wrap;html=1;fillColor=#411C1F;labelBackgroundColor=#FFFFFF;" parent="1" vertex="1">
                    <mxGeometry x="440" y="600" width="360" height="30" as="geometry"/>
                </mxCell>
                <mxCell id="124" value="" style="shape=ext;double=1;rounded=0;whiteSpace=wrap;html=1;fillColor=#2A2839;fontColor=#2A2839;labelBackgroundColor=#FFFFFF;" parent="1" vertex="1">
                    <mxGeometry x="450" y="600" width="60" height="30" as="geometry"/>
                </mxCell>
                <mxCell id="125" value="" style="shape=ext;double=1;rounded=0;whiteSpace=wrap;html=1;fillColor=#2A2839;fontColor=#2A2839;labelBackgroundColor=#FFFFFF;" parent="1" vertex="1">
                    <mxGeometry x="522.5" y="600" width="60" height="30" as="geometry"/>
                </mxCell>
                <mxCell id="126" value="" style="shape=ext;double=1;rounded=0;whiteSpace=wrap;html=1;fillColor=#2A2839;fontColor=#2A2839;labelBackgroundColor=#FFFFFF;" parent="1" vertex="1">
                    <mxGeometry x="596.25" y="600" width="60" height="30" as="geometry"/>
                </mxCell>
                <mxCell id="eutJH1_XDEG5o9YBUm8g-126" value="" style="rounded=1;whiteSpace=wrap;html=1;strokeColor=default;fontFamily=Helvetica;fontSize=12;fontColor=#FFFFFF;fillColor=#FFFFFF;arcSize=50;labelBackgroundColor=none;" parent="1" vertex="1">
                    <mxGeometry x="500" y="182.5" width="70" height="20" as="geometry"/>
                </mxCell>
                <mxCell id="eutJH1_XDEG5o9YBUm8g-127" value="" style="ellipse;shape=doubleEllipse;whiteSpace=wrap;html=1;aspect=fixed;fillColor=#411C1F;labelBackgroundColor=none;" parent="1" vertex="1">
                    <mxGeometry x="500" y="182.5" width="20" height="20" as="geometry"/>
                </mxCell>
                <mxCell id="eutJH1_XDEG5o9YBUm8g-128" value="Update on OS update" style="text;html=1;strokeColor=none;fillColor=none;align=left;verticalAlign=middle;whiteSpace=wrap;rounded=0;fontFamily=Helvetica;fontSize=12;fontColor=#FFFFFF;labelBackgroundColor=none;" parent="1" vertex="1">
                    <mxGeometry x="602.5" y="187.5" width="130" height="10" as="geometry"/>
                </mxCell>
                <mxCell id="eutJH1_XDEG5o9YBUm8g-129" value="" style="shape=ext;double=1;rounded=0;whiteSpace=wrap;html=1;fillColor=#411C1F;fontColor=#FFFFFF;labelBackgroundColor=#FFFFFF;" parent="1" vertex="1">
                    <mxGeometry x="350" y="50" width="40" height="40" as="geometry"/>
                </mxCell>
                <mxCell id="eutJH1_XDEG5o9YBUm8g-131" value="" style="endArrow=none;html=1;jumpSize=12;exitX=0;exitY=0.5;exitDx=0;exitDy=0;entryX=1;entryY=0.5;entryDx=0;entryDy=0;fontColor=#FFFFFF;labelBackgroundColor=#FFFFFF;" parent="1" source="eutJH1_XDEG5o9YBUm8g-129" target="eutJH1_XDEG5o9YBUm8g-129" edge="1">
                    <mxGeometry width="50" height="50" relative="1" as="geometry">
                        <mxPoint x="360" y="69.94" as="sourcePoint"/>
                        <mxPoint x="390" y="70" as="targetPoint"/>
                    </mxGeometry>
                </mxCell>
                <mxCell id="eutJH1_XDEG5o9YBUm8g-132" value="" style="endArrow=none;html=1;jumpSize=12;entryX=0.5;entryY=1;entryDx=0;entryDy=0;exitX=0.5;exitY=0;exitDx=0;exitDy=0;fontColor=#FFFFFF;labelBackgroundColor=#FFFFFF;" parent="1" source="eutJH1_XDEG5o9YBUm8g-129" target="eutJH1_XDEG5o9YBUm8g-129" edge="1">
                    <mxGeometry width="50" height="50" relative="1" as="geometry">
                        <mxPoint x="360" y="79.94" as="sourcePoint"/>
                        <mxPoint x="380" y="79.94" as="targetPoint"/>
                    </mxGeometry>
                </mxCell>
                <mxCell id="nwo9OEagyvj5NA1td7HY-126" value="" style="ellipse;whiteSpace=wrap;html=1;aspect=fixed;strokeColor=default;fontFamily=Helvetica;fontSize=8;fontColor=#FFFFFF;fillColor=#FFFFFF;labelBackgroundColor=none;" parent="1" vertex="1">
                    <mxGeometry x="450" y="50" width="50" height="50" as="geometry"/>
                </mxCell>
            </root>
        </mxGraphModel>
    </diagram>
</mxfile>